<svg width="34" height="26" viewBox="0 0 34 26" fill="none" xmlns="http://www.w3.org/2000/svg">
<g filter="url(#filter0_d_21_14)">
<path d="M24.6001 0H9.39987C6.4176 0 4 2.36527 4 5.28298V12.717C4 15.6347 6.4176 18 9.39987 18H24.6001C27.5824 18 30 15.6347 30 12.717V5.28298C30 2.36527 27.5824 0 24.6001 0ZM20.9482 9.36169L13.8386 12.6792C13.6491 12.7676 13.4303 12.6324 13.4303 12.4271V5.5848C13.4303 5.37656 13.6549 5.24159 13.8447 5.33573L20.9544 8.86056C21.1658 8.96535 21.1621 9.26193 20.9482 9.36169Z" fill="white" fill-opacity="0.6" shape-rendering="crispEdges"/>
</g>
<defs>
<filter id="filter0_d_21_14" x="0" y="0" width="34" height="26" filterUnits="userSpaceOnUse" color-interpolation-filters="sRGB">
<feFlood flood-opacity="0" result="BackgroundImageFix"/>
<feColorMatrix in="SourceAlpha" type="matrix" values="0 0 0 0 0 0 0 0 0 0 0 0 0 0 0 0 0 0 127 0" result="hardAlpha"/>
<feOffset dy="4"/>
<feGaussianBlur stdDeviation="2"/>
<feComposite in2="hardAlpha" operator="out"/>
<feColorMatrix type="matrix" values="0 0 0 0 0 0 0 0 0 0 0 0 0 0 0 0 0 0 0.25 0"/>
<feBlend mode="normal" in2="BackgroundImageFix" result="effect1_dropShadow_21_14"/>
<feBlend mode="normal" in="SourceGraphic" in2="effect1_dropShadow_21_14" result="shape"/>
</filter>
</defs>
</svg>
